<svg version="1.1" xmlns="http://www.w3.org/2000/svg" xmlns:xlink="http://www.w3.org/1999/xlink" x="0px" y="0px" width="24px"
	 height="24px" viewBox="0 0 24 24" style="overflow:visible;enable-background:new 0 0 24 24;" xml:space="preserve">
<defs>
</defs>
<g>
	<path d="M6.67,0C2.99,0,0,2.99,0,6.67v10.67C0,21.01,2.99,24,6.67,24h10.67c3.68,0,6.67-2.99,6.67-6.67V6.67
		C24,2.99,21.01,0,17.33,0H6.67z M6.67,2.67h10.67c2.21,0,4,1.79,4,4v10.67c0,2.21-1.79,4-4,4H6.67c-2.21,0-4-1.79-4-4V6.67
		C2.67,4.46,4.46,2.67,6.67,2.67z M18.67,4c-0.74,0-1.33,0.6-1.33,1.33s0.6,1.33,1.33,1.33c0.74,0,1.33-0.6,1.33-1.33
		S19.4,4,18.67,4z M12,5.33c-3.68,0-6.67,2.99-6.67,6.67s2.99,6.67,6.67,6.67s6.67-2.99,6.67-6.67S15.68,5.33,12,5.33z M12,8
		c2.21,0,4,1.79,4,4s-1.79,4-4,4s-4-1.79-4-4S9.79,8,12,8z"/>
</g>
</svg>
